<svg width="61" height="60" viewBox="0 0 61 60" fill="none" xmlns="http://www.w3.org/2000/svg">
<path fill-rule="evenodd" clip-rule="evenodd" d="M6.40747 13.125C6.40747 12.0204 7.28822 11.125 8.37468 11.125H53.3747C54.4611 11.125 55.3419 12.0204 55.3419 13.125V45C55.3419 46.0385 54.9291 47.0276 54.205 47.7517C53.482 48.4746 52.5083 48.875 51.4997 48.875H10.2497C9.24106 48.875 8.26733 48.4746 7.54437 47.7517C6.82031 47.0276 6.40747 46.0385 6.40747 45V13.125ZM10.3419 15.125V44.875H51.4075V15.125H10.3419Z" fill="white"/>
<path fill-rule="evenodd" clip-rule="evenodd" d="M6.91367 11.7857C7.64121 10.9654 8.88512 10.9 9.69202 11.6396L30.8747 31.0571L52.0574 11.6396C52.8643 10.9 54.1082 10.9654 54.8357 11.7857C55.5633 12.6061 55.4989 13.8707 54.692 14.6104L32.192 35.2354C31.4435 35.9216 30.3059 35.9216 29.5574 35.2354L7.05738 14.6104C6.25048 13.8707 6.18614 12.6061 6.91367 11.7857Z" fill="white"/>
</svg>
