<svg width="31" height="38" viewBox="0 0 31 38" fill="none" xmlns="http://www.w3.org/2000/svg">
<path d="M29.2901 17.7092L2.51187 1.07144C2.28632 0.931304 2.02812 0.854784 1.76383 0.849753C1.49954 0.844721 1.2387 0.91136 1.00815 1.04281C0.777598 1.17427 0.585654 1.36579 0.45206 1.59769C0.318466 1.82958 0.248047 2.09347 0.248047 2.36221V35.6378C0.248047 35.9065 0.318466 36.1704 0.45206 36.4023C0.585654 36.6342 0.777598 36.8257 1.00815 36.9572C1.2387 37.0886 1.49954 37.1553 1.76383 37.1502C2.02812 37.1452 2.28632 37.0687 2.51187 36.9285L29.2901 20.2908C29.5076 20.1556 29.6873 19.966 29.812 19.7399C29.9367 19.5139 30.0022 19.2591 30.0022 19C30.0022 18.7409 29.9367 18.4861 29.812 18.26C29.6873 18.034 29.5076 17.8444 29.2901 17.7092Z" fill="white"/>
</svg>
