<svg width="39" height="40" viewBox="0 0 39 40" fill="none" xmlns="http://www.w3.org/2000/svg">
<path d="M33.819 0.970032H5.27824C2.55913 0.970032 0.348633 2.98491 0.348633 5.89963V34.4404C0.348633 37.3552 2.55913 39.37 5.27824 39.37H33.819C36.5381 39.37 38.7486 37.3552 38.7486 34.4404V5.89963C38.7486 2.98491 36.5381 0.970032 33.819 0.970032ZM26.6007 6.97553C26.6007 6.017 27.3832 5.25409 28.3221 5.25409H32.6649C33.6234 5.25409 34.3863 6.03656 34.3863 6.97553V11.1227C34.3863 12.0812 33.6039 12.8441 32.6649 12.8441H28.3221C27.3636 12.8441 26.6007 12.0616 26.6007 11.1227V6.97553ZM19.5975 12.6289C23.862 12.6289 27.3049 15.974 27.3049 20.1016C27.3049 24.2291 23.8425 27.5742 19.5975 27.5742C15.333 27.5742 11.8901 24.2291 11.8901 20.1016C11.8901 15.974 15.333 12.6289 19.5975 12.6289ZM34.4059 33.4428C34.4059 34.2839 33.7212 34.9686 32.8801 34.9686H6.13895C5.29779 34.9686 4.61313 34.2839 4.61313 33.4428V17.2064H8.13426C7.82127 18.2432 7.64521 19.3582 7.64521 20.4928C7.64521 26.8895 12.9856 32.0539 19.578 32.0539C26.1703 32.0539 31.5107 26.87 31.5107 20.4928C31.5107 19.3582 31.3347 18.2432 31.0217 17.2064H34.4059V33.4428Z" fill="white"/>
</svg>
