<svg width="39" height="39" viewBox="0 0 39 39" fill="none" xmlns="http://www.w3.org/2000/svg">
<path d="M38.8444 38.3015L38.8638 24.346C38.8638 17.513 37.3968 12.2628 29.4057 12.2628C25.5645 12.2628 22.9973 14.3667 21.9357 16.3741H21.8199V12.8804H14.2534V38.2822H22.1287V25.7164C22.1287 22.3964 22.7657 19.1923 26.8578 19.1923C30.8919 19.1923 30.9691 22.9755 30.9691 25.9287V38.3015H38.8444Z" fill="white"/>
<path d="M9.33186 12.8804H1.43726V38.2822H9.33186V12.8804Z" fill="white"/>
<path d="M5.37467 0.237488C2.84608 0.237488 0.800049 2.28352 0.800049 4.81212C0.800049 7.34071 2.84608 9.42535 5.37467 9.42535C7.90326 9.42535 9.94929 7.34071 9.94929 4.81212C9.94929 2.28352 7.90326 0.237488 5.37467 0.237488Z" fill="white"/>
</svg>
