<svg width="41" height="34" viewBox="0 0 41 34" fill="none" xmlns="http://www.w3.org/2000/svg">
<path d="M36.2255 9.0487L36.2457 10.1005C36.2457 20.902 28.0425 33.3824 13.0469 33.3824C8.45144 33.3824 4.15835 32.0271 0.550537 29.6808C1.17535 29.7617 1.82032 29.8021 2.48545 29.8021C6.31497 29.8021 9.82201 28.4873 12.6034 26.2825C9.03595 26.2219 6.03279 23.8552 4.98471 20.5986C5.4886 20.6997 5.99249 20.7402 6.51653 20.7402C7.26227 20.7402 7.98786 20.6391 8.65299 20.457C4.92425 19.7086 2.12265 16.4115 2.12265 12.4469V12.366C3.21104 12.9728 4.46067 13.3369 5.81108 13.3774C3.6343 11.921 2.20328 9.39257 2.20328 6.58095C2.20328 5.08411 2.60638 3.66819 3.31182 2.45454C7.30258 7.41028 13.329 10.6467 20.1012 10.9905C19.9602 10.4039 19.8997 9.77689 19.8997 9.12961C19.8997 4.61888 23.5277 0.957703 28.0425 0.957703C30.3805 0.957703 32.5169 1.94885 34.0084 3.5266C35.8426 3.1625 37.5961 2.49499 39.1884 1.56453C38.5837 3.46591 37.2938 5.08411 35.6007 6.09549C37.2535 5.89321 38.8256 5.44821 40.2969 4.80093C39.1884 6.43936 37.7977 7.89574 36.2255 9.0487Z" fill="white"/>
</svg>
