<svg width="58" height="78" viewBox="0 0 58 78" fill="none" xmlns="http://www.w3.org/2000/svg">
<path d="M3.89078 77.8138C1.75843 77.8138 0.027832 76.0832 0.027832 73.9509V9.87223C0.027832 7.73988 1.75843 6.00928 3.89078 6.00928H11.5085V9.09964H46.4914V6.00928H54.1092C56.2415 6.00928 57.9721 7.73988 57.9721 9.87223V73.9663C57.9721 76.0987 56.2415 77.8293 54.1092 77.8293H3.89078V77.8138Z" fill="#8338EC"/>
<path d="M17.7666 41.3166C24.1669 41.3166 29.3554 36.1281 29.3554 29.7278C29.3554 23.3274 24.1669 18.1389 17.7666 18.1389C11.3662 18.1389 6.17773 23.3274 6.17773 29.7278C6.17773 36.1281 11.3662 41.3166 17.7666 41.3166Z" fill="#BF8F08"/>
<path d="M10.0407 29.7277C10.0407 24.0724 14.12 19.2514 19.6981 18.3089C13.3938 17.2427 7.39847 21.4919 6.3323 27.7963C5.26612 34.1006 9.51537 40.0959 15.8197 41.1621C17.1022 41.3784 18.4156 41.3784 19.6981 41.1621C14.12 40.2195 10.0407 35.3831 10.0407 29.7277Z" fill="#FFBE0B"/>
<path d="M13.0076 0.9104H44.9774C45.8118 0.9104 46.4762 1.59028 46.4762 2.40923V9.22348C46.4762 10.2433 45.6418 11.0777 44.622 11.0777H13.363C12.3432 11.0777 11.5088 10.2433 11.5088 9.22348V2.40923C11.5088 1.59028 12.1732 0.9104 13.0076 0.9104Z" fill="#CFCFD5"/>
<path d="M48.4229 39.355H39.9553C39.3217 39.355 38.7964 39.8803 38.7964 40.5139C38.7964 41.1474 39.3217 41.6728 39.9553 41.6728H48.4229C49.0564 41.6728 49.5817 41.1474 49.5817 40.5139C49.5817 39.8803 49.0564 39.355 48.4229 39.355Z" fill="#FFBE0B"/>
<path d="M32.1057 41.6728H34.9488C35.5823 41.6728 36.1077 41.1474 36.1077 40.5139C36.1077 39.8803 35.5823 39.355 34.9488 39.355H32.1057C31.4721 39.355 30.9468 39.8803 30.9468 40.5139C30.9468 41.1474 31.4721 41.6728 32.1057 41.6728Z" fill="#FFBE0B"/>
<path d="M48.4231 51.8862H45.549C44.9155 51.8862 44.3901 52.4116 44.3901 53.0451C44.3901 53.6786 44.9155 54.204 45.549 54.204H48.4231C49.0566 54.204 49.5819 53.6786 49.5819 53.0451C49.5819 52.4116 49.0566 51.8862 48.4231 51.8862Z" fill="#FFBE0B"/>
<path d="M41.5318 54.204C42.1654 54.204 42.6907 53.6786 42.6907 53.0451C42.6907 52.4116 42.1654 51.8862 41.5318 51.8862H26.1882C25.5547 51.8862 25.0293 52.4116 25.0293 53.0451C25.0293 53.6786 25.5547 54.204 26.1882 54.204H41.5318Z" fill="#FFBE0B"/>
<path d="M22.1241 51.8862H21.0888C20.4553 51.8862 19.9299 52.4116 19.9299 53.0451C19.9299 53.6786 20.4553 54.204 21.0888 54.204H22.1241C22.7576 54.204 23.283 53.6786 23.283 53.0451C23.283 52.4116 22.7576 51.8862 22.1241 51.8862Z" fill="#FFBE0B"/>
<path d="M9.53071 51.8862C8.89719 51.8862 8.37183 52.4116 8.37183 53.0451C8.37183 53.6786 8.89719 54.204 9.53071 54.204H16.0977C16.7313 54.204 17.2566 53.6786 17.2566 53.0451C17.2566 52.4116 16.7313 51.8862 16.0977 51.8862H9.53071Z" fill="#FFBE0B"/>
<path d="M48.4227 63.4751H41.7939C41.1604 63.4751 40.635 64.0005 40.635 64.634C40.635 65.2675 41.1604 65.7929 41.7939 65.7929H48.4227C49.0562 65.7929 49.5816 65.2675 49.5816 64.634C49.5816 64.0005 49.0562 63.4751 48.4227 63.4751Z" fill="#FFBE0B"/>
<path d="M37.6221 63.4751H36.8032C36.1696 63.4751 35.6443 64.0005 35.6443 64.634C35.6443 65.2675 36.1696 65.7929 36.8032 65.7929H37.6376C38.2711 65.7929 38.7965 65.2675 38.7965 64.634C38.7965 64.0005 38.2711 63.4751 37.6221 63.4751Z" fill="#FFBE0B"/>
<path d="M33.5277 63.4751H27.2233C26.5898 63.4751 26.0645 64.0005 26.0645 64.634C26.0645 65.2675 26.5898 65.7929 27.2233 65.7929H33.5277C34.1612 65.7929 34.6866 65.2675 34.6866 64.634C34.6866 64.0005 34.1767 63.4751 33.5277 63.4751Z" fill="#FFBE0B"/>
<path d="M22.1239 63.4751H9.53071C8.89719 63.4751 8.37183 64.0005 8.37183 64.634C8.37183 65.2675 8.89719 65.7929 9.53071 65.7929H22.1239C22.7575 65.7929 23.2828 65.2675 23.2828 64.634C23.2828 64.0005 22.7575 63.4751 22.1239 63.4751Z" fill="#FFBE0B"/>
<path d="M48.423 29.4812H47.6813C47.0478 29.4812 46.5225 30.0066 46.5225 30.6401C46.5225 31.2736 47.0478 31.799 47.6813 31.799H48.423C49.0566 31.799 49.5819 31.2736 49.5819 30.6401C49.5819 30.0066 49.0566 29.4812 48.423 29.4812Z" fill="#FFBE0B"/>
<path d="M34.4702 31.799H42.6905C43.3241 31.799 43.8494 31.2736 43.8494 30.6401C43.8494 30.0066 43.3241 29.4812 42.6905 29.4812H34.4702C33.8366 29.4812 33.3113 30.0066 33.3113 30.6401C33.3113 31.2736 33.8212 31.799 34.4702 31.799Z" fill="#FFBE0B"/>
<path d="M48.423 19.8237H40.1408C39.5073 19.8237 38.9819 20.3491 38.9819 20.9826C38.9819 21.6161 39.5073 22.1415 40.1408 22.1415H48.423C49.0565 22.1415 49.5819 21.6161 49.5819 20.9826C49.5819 20.3491 49.0565 19.8237 48.423 19.8237Z" fill="#FFBE0B"/>
<path d="M34.4702 22.1415H35.15C35.7836 22.1415 36.3089 21.6161 36.3089 20.9826C36.3089 20.3491 35.7836 19.8237 35.15 19.8237H34.4702C33.8366 19.8237 33.3113 20.3491 33.3113 20.9826C33.3113 21.6161 33.8212 22.1415 34.4702 22.1415Z" fill="#FFBE0B"/>
<path d="M17.7665 42.4916C24.8126 42.4916 30.5143 36.7899 30.5143 29.7438C30.5143 22.6978 24.8126 16.9961 17.7665 16.9961C10.7205 16.9961 5.0188 22.6978 5.0188 29.7438C5.0188 36.7744 10.736 42.4761 17.7665 42.4916ZM17.7665 19.3139C23.5301 19.3139 28.1965 23.9803 28.1965 29.7438C28.1965 35.5074 23.5301 40.1738 17.7665 40.1738C12.003 40.1738 7.33657 35.5074 7.33657 29.7438C7.33657 23.9803 12.003 19.3139 17.7665 19.3139Z" fill="#284268"/>
<path d="M15.0936 33.6992C15.449 34.0546 16.0207 34.0546 16.3761 33.6992L23.0204 27.0549C23.3758 26.6995 23.3603 26.1278 23.0049 25.7724C22.6496 25.417 22.0778 25.417 21.7379 25.7724L15.7426 31.7677L13.7957 29.8208C13.4403 29.4654 12.8686 29.4499 12.5132 29.8053C12.1578 30.1607 12.1423 30.7324 12.4977 31.0878L12.5132 31.1033L15.0936 33.6992Z" fill="#284268"/>
</svg>
