<svg width="140" height="139" viewBox="0 0 140 139" fill="none" xmlns="http://www.w3.org/2000/svg">
<path d="M70.0001 138.949C31.8465 138.949 0.775635 107.878 0.775635 69.7244C0.775635 31.5709 31.8465 0.5 70.0001 0.5C75.4807 0.5 80.9613 1.13238 86.2733 2.4393C89.0979 3.11383 90.8264 5.98062 90.1519 8.80525C89.4774 11.6299 86.6106 13.3584 83.7859 12.6838C79.3171 11.5877 74.6375 11.0397 70.0001 11.0397C37.6223 11.0397 11.3153 37.3466 11.3153 69.7244C11.3153 102.102 37.6223 128.409 70.0001 128.409C102.378 128.409 128.685 102.102 128.685 69.7244C128.685 65.7194 128.263 61.7565 127.504 57.8779C126.914 55.0111 128.769 52.2286 131.594 51.6384C134.418 51.0482 137.243 52.9032 137.833 55.7278C138.761 60.2809 139.225 64.9605 139.225 69.6823C139.225 107.878 108.154 138.949 70.0001 138.949Z" fill="#3A86FF"/>
</svg>
