<svg width="94" height="15" viewBox="0 0 94 15" fill="none" xmlns="http://www.w3.org/2000/svg">
<path d="M6.35964 3.43458V14.438H4.16739V3.43458H0.0780029V1.45312H10.4912V3.43458H6.35964Z" fill="black"/>
<path d="M20.2724 9.50417C20.2724 12.4553 18.1645 14.5211 15.1291 14.5211C12.0515 14.5211 9.98572 12.4974 9.98572 9.50417C9.98572 6.51091 12.0936 4.4873 15.1291 4.4873C18.1645 4.4873 20.2724 6.51091 20.2724 9.50417ZM12.1358 9.50417C12.1358 11.4013 13.3584 12.7082 15.1712 12.7082C16.9419 12.7082 18.1645 11.4013 18.1645 9.50417C18.1645 7.60704 16.9419 6.30013 15.1712 6.30013C13.3584 6.34228 12.1358 7.60704 12.1358 9.50417Z" fill="black"/>
<path d="M28.0284 13.8054C27.2696 14.2691 26.4264 14.5221 25.5832 14.5221C24.1077 14.5221 22.8429 13.6789 22.8429 11.6553V6.55409H21.4517V4.95205H22.8429V2.25391H24.9508V4.95205H27.8598V6.55409H24.993V11.2758C24.993 12.2877 25.3724 12.6249 26.0469 12.6249C26.5107 12.6249 26.9744 12.4563 27.5225 12.2033L28.0284 13.8054Z" fill="black"/>
<path d="M35.9134 13.2141C35.1967 14.0995 34.0584 14.5211 32.6672 14.5211C30.5171 14.5211 29.2102 13.2141 29.2102 11.4435C29.2102 9.63066 30.5593 8.49238 32.9202 8.49238H35.9134V8.19727C35.9134 6.97467 35.1124 6.21581 33.5525 6.21581C32.6251 6.21581 31.6132 6.55308 30.6436 7.22762L29.7583 5.75206C31.1495 4.90889 32.1192 4.4873 34.0163 4.4873C36.5458 4.4873 37.9792 5.79422 37.9792 7.94431V14.3946H35.8713V13.2141H35.9134ZM35.9134 10.9376V10.0101H33.2574C31.8662 10.0101 31.2338 10.3895 31.2338 11.317C31.2338 12.2023 31.9505 12.7926 33.131 12.7926C34.6065 12.8347 35.7869 12.0337 35.9134 10.9376Z" fill="black"/>
<path d="M40.9294 14.4371V0.693359H43.0795V14.4371H40.9294Z" fill="black"/>
<path d="M57.4551 5.4568L56.6962 7.01666C55.8109 6.4686 54.7148 6.13133 53.8716 6.13133C53.0284 6.13133 52.4382 6.42644 52.4382 7.10098C52.4382 8.9138 57.6659 7.94415 57.6659 11.5276C57.6659 13.5512 55.8531 14.4366 53.8716 14.4366C52.4382 14.4366 50.8783 13.9728 49.9087 13.0453L50.6675 11.5276C51.5107 12.2865 52.9019 12.7502 53.9559 12.7502C54.8834 12.7502 55.5579 12.4551 55.5579 11.6963C55.5579 9.67266 50.3724 10.8109 50.3724 7.26962C50.3724 5.28816 52.1009 4.40283 53.9981 4.40283C55.2628 4.48715 56.5697 4.82442 57.4551 5.4568Z" fill="black"/>
<path d="M65.6777 13.2141C64.961 14.0995 63.8227 14.5211 62.4315 14.5211C60.2814 14.5211 58.9745 13.2141 58.9745 11.4435C58.9745 9.63066 60.3236 8.49238 62.6844 8.49238H65.6777V8.19727C65.6777 6.97467 64.8767 6.21581 63.3168 6.21581C62.3893 6.21581 61.3775 6.55308 60.4079 7.22762L59.5225 5.75206C60.9138 4.90889 61.9256 4.4873 63.7806 4.4873C66.3101 4.4873 67.7435 5.79422 67.7435 7.94431V14.3946H65.6355V13.2141H65.6777ZM65.6777 10.9376V10.0101H63.0217C61.6305 10.0101 60.9981 10.3895 60.9981 11.317C60.9981 12.2023 61.7148 12.7926 62.8952 12.7926C64.3708 12.8347 65.5512 12.0337 65.6777 10.9376Z" fill="black"/>
<path d="M70.6937 14.4371V0.693359H72.8438V14.4371H70.6937Z" fill="black"/>
<path d="M84.7317 10.3046H77.2696C77.6069 11.8223 78.7873 12.7498 80.3472 12.7498C81.4011 12.7498 82.4129 12.3282 83.1296 11.6115L84.2679 12.8341C83.2983 13.8881 81.907 14.5205 80.1785 14.5205C77.1431 14.5205 75.1195 12.4969 75.1195 9.54578C75.1195 6.55252 77.1853 4.5289 80.0942 4.5289C83.5934 4.48674 84.9846 6.76331 84.7317 10.3046ZM82.8767 8.74476C82.7924 7.14273 81.7384 6.1731 80.1364 6.1731C78.5765 6.1731 77.4804 7.14273 77.2274 8.74476H82.8767Z" fill="black"/>
<path d="M93.3331 5.4568L92.5743 7.01666C91.6889 6.4686 90.5928 6.13133 89.7496 6.13133C88.9065 6.13133 88.3163 6.42644 88.3163 7.10098C88.3163 8.9138 93.5439 7.94415 93.5439 11.5276C93.5439 13.5512 91.7311 14.4366 89.7496 14.4366C88.3163 14.4366 86.7564 13.9728 85.7867 13.0453L86.5456 11.5276C87.3888 12.2865 88.78 12.7502 89.834 12.7502C90.7615 12.7502 91.436 12.4551 91.436 11.6963C91.436 9.67266 86.2505 10.8109 86.2505 7.26962C86.2505 5.28816 87.979 4.40283 89.8761 4.40283C91.1409 4.48715 92.4478 4.82442 93.3331 5.4568Z" fill="black"/>
</svg>
