<svg width="62" height="38" viewBox="0 0 62 38" fill="none" xmlns="http://www.w3.org/2000/svg">
<path d="M26.7416 9.54121C26.7416 13.4198 23.8749 17.5513 19.9541 21.5986L11.9018 29.9881H28.0064V36.86H1.23567V31.2529L14.3892 17.3406C16.6236 15.064 18.1834 12.4923 18.1834 10.7638C18.1834 8.48724 16.4128 7.13817 13.4195 7.13817C10.4263 7.13817 6.71629 8.90883 3.51224 11.6913L0.350342 5.5783C4.777 2.20561 9.58308 0.182 14.6421 0.182C21.6826 0.139842 26.7416 3.80764 26.7416 9.54121Z" fill="#3A86FF"/>
<path d="M59.2047 9.79365C59.2047 12.9977 57.3497 15.8645 54.3564 17.3822C58.4458 18.9842 61.0597 22.4834 61.0597 26.6149C61.0597 33.1074 55.3683 37.1968 46.4728 37.1968C37.493 37.1968 31.8438 33.1495 31.8438 26.6993C31.8438 22.4834 34.5841 18.9842 38.9685 17.34C35.7645 15.6959 33.7409 12.7869 33.7409 9.5407C33.7409 3.72281 38.7156 0.097168 46.4728 0.097168C54.23 0.139327 59.2047 3.89144 59.2047 9.79365ZM39.6431 25.8561C39.6431 29.1866 42.0883 30.9994 46.5149 30.9994C50.8151 30.9994 53.3868 29.1866 53.3868 25.8982C53.3868 22.6942 50.8994 20.8814 46.4728 20.8814C42.0883 20.8392 39.6431 22.652 39.6431 25.8561ZM40.6127 10.2574C40.6127 13.082 42.7207 14.684 46.4728 14.684C50.1406 14.684 52.2485 13.082 52.2485 10.2574C52.2485 7.39061 50.1827 5.78858 46.4728 5.78858C42.7628 5.78858 40.6127 7.39061 40.6127 10.2574Z" fill="#3A86FF"/>
</svg>
