<svg width="126" height="42" viewBox="0 0 126 42" fill="none" xmlns="http://www.w3.org/2000/svg">
<path d="M60.5958 17.2502L59.4004 19.5841C58.0911 18.8441 56.7249 18.4171 55.7288 18.4171C54.9318 18.4171 54.3341 18.6733 54.3341 19.2995C54.3341 21.121 60.6811 20.1818 60.6527 24.4511C60.6527 26.8988 58.4896 28.208 55.7572 28.208C53.8218 28.208 51.9149 27.6388 50.5487 26.5288L51.6587 24.1949C52.911 25.1626 54.5334 25.7034 55.8426 25.7034C56.7249 25.7034 57.3511 25.4188 57.3511 24.7642C57.3511 22.8287 51.1179 23.8818 51.1179 19.641C51.1179 17.1648 53.2526 15.884 55.8711 15.884C57.5503 15.9125 59.2581 16.3963 60.5958 17.2502Z" fill="white"/>
<path d="M75.1397 20.5519V28.1227H71.6958V21.5765C71.6958 20.068 70.8135 19.1288 69.3335 19.1288C67.6258 19.1572 66.5727 20.438 66.5727 22.2027V28.1227H63.1288V11.501H66.5727V18.1895C67.4265 16.681 68.8496 15.941 70.7281 15.941C73.4035 15.941 75.1397 17.7341 75.1397 20.5519Z" fill="white"/>
<path d="M89.9404 22.0898C89.9404 25.7614 87.3503 28.2375 83.508 28.2375C79.6372 28.2375 77.0471 25.7614 77.0471 22.0898C77.0471 18.3897 79.6372 15.9705 83.508 15.9705C87.3503 15.9705 89.9404 18.3897 89.9404 22.0898ZM80.491 22.1467C80.491 24.1106 81.6864 25.4483 83.4795 25.4483C85.2442 25.4483 86.468 24.1106 86.468 22.1467C86.468 20.1828 85.2442 18.8451 83.4795 18.8451C81.7149 18.8167 80.491 20.1544 80.491 22.1467Z" fill="white"/>
<path d="M105.225 22.1467C105.225 25.7898 103.005 28.2375 99.6464 28.2375C97.9671 28.2375 96.6579 27.5545 95.7756 26.3591V32.4499H92.3317V16.0843H95.7756V17.8489C96.6294 16.6535 97.9387 15.9705 99.5895 15.9705C102.948 15.9705 105.225 18.4466 105.225 22.1467ZM101.753 22.0328C101.753 20.0974 100.557 18.7313 98.7641 18.7313C96.9994 18.7313 95.7756 20.0974 95.7756 22.0328C95.7756 24.0252 96.9994 25.3629 98.7641 25.3629C100.529 25.3914 101.753 24.0252 101.753 22.0328Z" fill="white"/>
<path d="M111.088 12.6402C111.088 13.7503 110.319 14.5757 109.238 14.5757C108.156 14.5757 107.388 13.7787 107.388 12.6402C107.388 11.5302 108.156 10.7048 109.238 10.7048C110.319 10.7333 111.088 11.5302 111.088 12.6402ZM107.501 28.0951V16.0841H110.945V28.1235H107.501V28.0951Z" fill="white"/>
<path d="M120.082 29.4616C119.228 31.5962 117.748 32.6209 115.67 32.6209C114.389 32.6209 113.393 32.2508 112.397 31.4539L113.849 28.9777C114.389 29.4331 114.845 29.6323 115.414 29.6323C116.126 29.6323 116.666 29.2623 117.008 28.5508L117.349 27.8677L112.369 16.0845H115.926L119.086 24.3669L121.932 16.0845H125.376L120.082 29.4616Z" fill="white"/>
<path opacity="0.8" d="M30.6546 32.1647C36.2978 32.1647 40.8724 27.59 40.8724 21.9468C40.8724 16.3037 36.2978 11.729 30.6546 11.729C25.0114 11.729 20.4368 16.3037 20.4368 21.9468C20.4368 27.59 25.0114 32.1647 30.6546 32.1647Z" fill="#8338EC"/>
<path opacity="0.8" d="M10.2178 32.1647C15.861 32.1647 20.4357 27.59 20.4357 21.9468C20.4357 16.3037 15.861 11.729 10.2178 11.729C4.57468 11.729 0 16.3037 0 21.9468C0 27.59 4.57468 32.1647 10.2178 32.1647Z" fill="#3A86FF"/>
<path opacity="0.8" d="M20.435 21.3771C26.0781 21.3771 30.6528 16.8024 30.6528 11.1592C30.6528 5.51609 26.0781 0.941406 20.435 0.941406C14.7918 0.941406 10.2172 5.51609 10.2172 11.1592C10.2172 16.8024 14.7918 21.3771 20.435 21.3771Z" fill="#FFBE0B"/>
<path opacity="0.8" d="M20.435 41.6698C26.0781 41.6698 30.6528 37.0951 30.6528 31.452C30.6528 25.8088 26.0781 21.2341 20.435 21.2341C14.7918 21.2341 10.2172 25.8088 10.2172 31.452C10.2172 37.0951 14.7918 41.6698 20.435 41.6698Z" fill="#FB5607"/>
</svg>
