<svg width="61" height="60" viewBox="0 0 61 60" fill="none" xmlns="http://www.w3.org/2000/svg">
<path d="M54.3505 6.93069H35.1509C34.6128 6.93069 34.1237 7.25008 33.9035 7.76601C33.7079 8.28193 33.8057 8.84699 34.197 9.24008L39.4311 14.4976L26.346 30.5896L25.0008 28.2065C24.7807 27.8135 24.3894 27.5678 23.9246 27.5432C23.4844 27.4941 23.0442 27.6906 22.7751 28.0591L6.60833 49.0402C5.82567 50.0475 5.92351 51.4233 6.804 52.3323C7.29316 52.8236 7.92907 53.0693 8.56498 53.0693C9.10306 53.0693 9.61668 52.8973 10.0814 52.5534L26.2971 40.0974L27.8869 42.6771C28.107 43.021 28.4738 43.2667 28.8652 43.3158C29.281 43.365 29.6723 43.2176 29.9658 42.9227L48.6028 24.202L53.3722 28.9927C53.7635 29.3858 54.326 29.4841 54.8397 29.2875C55.3533 29.0664 55.6712 28.5751 55.6712 28.0346V8.28193C55.6957 7.54489 55.1087 6.93069 54.3505 6.93069ZM53.0053 24.767L49.5812 21.3275C49.3366 21.0818 48.9942 20.9344 48.6273 20.9344C48.2604 20.9344 47.918 21.0818 47.6734 21.3275L29.3054 39.8272L27.8135 37.4195C27.6178 37.1001 27.2754 36.879 26.9085 36.8053C26.5417 36.7316 26.1503 36.8299 25.8568 37.051L9.66559 49.4824L23.6556 31.3267L24.9519 33.6361C25.172 34.0291 25.5633 34.2748 26.0036 34.324C26.4438 34.3731 26.8841 34.1766 27.1531 33.8326L42.2437 15.2592C42.684 14.7187 42.6351 13.9326 42.1459 13.4412L38.3794 9.63317H53.0053V24.767Z" fill="white"/>
<path d="M21.3816 24.3003C23.1106 24.3003 24.5122 22.8923 24.5122 21.1556C24.5122 19.4188 23.1106 18.0109 21.3816 18.0109C19.6526 18.0109 18.251 19.4188 18.251 21.1556C18.251 22.8923 19.6526 24.3003 21.3816 24.3003Z" fill="white"/>
<path d="M25.026 18.969C25.6864 18.969 26.2245 18.4285 26.2245 17.7652C26.2245 17.1018 25.6864 16.5859 25.026 16.5859C24.3657 16.5859 23.8521 17.1264 23.8521 17.7897C23.8521 18.4531 24.3657 18.969 25.026 18.969Z" fill="white"/>
<path d="M41.4617 42.8982C43.1907 42.8982 44.5923 41.4902 44.5923 39.7535C44.5923 38.0167 43.1907 36.6088 41.4617 36.6088C39.7327 36.6088 38.3311 38.0167 38.3311 39.7535C38.3311 41.4902 39.7327 42.8982 41.4617 42.8982Z" fill="white"/>
<path d="M37.8175 41.9155C37.1572 41.9155 36.6436 42.456 36.6436 43.1193C36.6436 43.7826 37.1816 44.3231 37.8175 44.3231C38.4535 44.3231 39.016 43.7826 39.016 43.1193C39.016 42.456 38.4535 41.9155 37.8175 41.9155Z" fill="white"/>
</svg>
