<svg width="52" height="48" viewBox="0 0 52 48" fill="none" xmlns="http://www.w3.org/2000/svg">
<path d="M48.2243 8.8832H46.3925V5.47497C46.3925 4.26934 45.9288 3.13326 45.0709 2.27541C44.213 1.41755 43.0769 0.930664 41.848 0.930664H26.6609C25.7566 0.930664 24.8987 1.27844 24.2495 1.92763L1.5499 24.626C0.692001 25.4838 0.228271 26.6199 0.228271 27.8256C0.228271 29.0312 0.692001 30.1673 1.5499 31.0251L16.2733 45.7477C17.1312 46.6056 18.2673 47.0693 19.473 47.0693C20.6787 47.0693 21.8149 46.6056 22.6728 45.7477L36.9556 31.4656C37.4194 31.0019 37.4194 30.26 36.9556 29.7963C36.4919 29.3326 35.75 29.3326 35.2862 29.7963L21.0034 44.0784C20.586 44.4957 20.0527 44.7276 19.4499 44.7276C18.847 44.7276 18.3137 44.4957 17.8964 44.0784L3.17295 29.3558C2.7556 28.9384 2.52373 28.4052 2.52373 27.8024C2.52373 27.1996 2.7556 26.6663 3.17295 26.249L25.8725 3.5506C26.0812 3.34193 26.3362 3.24919 26.6145 3.24919H41.8016C42.3813 3.24919 42.9378 3.48104 43.3551 3.89838C43.7725 4.31571 44.0043 4.84897 44.0043 5.45179V13.6594H39.6685C39.4366 13.6594 39.2047 13.5898 38.9961 13.4507C39.3439 13.2652 39.6685 13.0334 39.9467 12.7551C40.6655 12.0364 41.0828 11.0626 41.0828 10.0193C41.0828 8.97595 40.6887 8.02535 39.9467 7.28342C39.2279 6.56468 38.2541 6.14735 37.2107 6.14735C36.1673 6.14735 35.2167 6.54149 34.4747 7.28342C33.7559 8.00216 33.3386 8.97595 33.3386 10.0193C33.3386 11.0626 33.7327 12.0132 34.4747 12.7551C34.9848 13.2652 35.634 13.6362 36.3528 13.7985C36.9093 15.12 38.2309 16.0011 39.6685 16.0011H44.0043V20.6149C44.0043 20.8932 43.8884 21.1714 43.7029 21.3569L40.9669 24.0927C40.735 24.3246 40.6191 24.6028 40.6191 24.9274C40.6191 25.252 40.735 25.5302 40.9669 25.7621C41.1988 25.9939 41.477 26.1098 41.8016 26.1098C42.1262 26.1098 42.4045 25.9939 42.6363 25.7621L45.3723 23.0262C46.0216 22.377 46.3694 21.5192 46.3694 20.6149V16.0011H48.2011C50.1719 16.0011 51.7718 14.4013 51.7718 12.4305C51.7718 10.4598 50.1951 8.8832 48.2243 8.8832ZM49.4532 12.4537C49.4532 13.1261 48.8967 13.6826 48.2243 13.6826H46.3925V11.2249H48.2243C48.8967 11.2249 49.4532 11.7814 49.4532 12.4537ZM38.4396 9.11506C37.4657 9.48602 36.7006 10.2743 36.3296 11.2481C36.2832 11.2017 36.2137 11.1554 36.1673 11.109C35.8891 10.8308 35.7268 10.4366 35.7268 10.0425C35.7268 9.64832 35.8891 9.25417 36.1673 8.97595C36.4455 8.69772 36.8397 8.53543 37.2339 8.53543C37.6281 8.53543 38.0222 8.69772 38.3005 8.97595C38.37 9.02232 38.3932 9.06869 38.4396 9.11506Z" fill="white"/>
<path d="M23.1597 31.9294C23.7394 31.9294 24.2959 31.6975 24.7132 31.2802C25.1306 30.8628 25.3625 30.3296 25.3625 29.7268C25.3625 29.1471 25.1306 28.5907 24.7132 28.1734C24.2959 27.756 23.7626 27.5242 23.1597 27.5242C22.5801 27.5242 22.0236 27.756 21.6063 28.1734C21.1889 28.5907 20.957 29.124 20.957 29.7268C20.957 30.3296 21.1889 30.8628 21.6063 31.2802C22.0236 31.6975 22.5801 31.9294 23.1597 31.9294Z" fill="white"/>
<path d="M25.2004 21.1714C26.0583 20.3136 26.0583 18.9225 25.2004 18.0878C24.783 17.6705 24.2497 17.4386 23.6469 17.4386C23.0672 17.4386 22.5107 17.6705 22.0934 18.0878C21.2355 18.9456 21.2355 20.3368 22.0934 21.1714C22.5107 21.5888 23.0672 21.7974 23.6469 21.7974C24.2265 21.7974 24.783 21.5888 25.2004 21.1714Z" fill="white"/>
<path d="M10.8246 24.9738C10.8246 24.6724 10.7087 24.371 10.4768 24.1391C10.0363 23.6986 9.27113 23.6986 8.8074 24.1391L5.95546 26.9909C5.74679 27.1996 5.60767 27.501 5.60767 27.8256C5.60767 28.1502 5.7236 28.4284 5.95546 28.6603L18.6385 41.3426C18.8703 41.5745 19.1486 41.6904 19.4732 41.6904C19.7978 41.6904 20.076 41.5745 20.3079 41.3426L39.2744 22.3771C39.7382 21.9134 39.7382 21.1714 39.2744 20.7077L26.5914 8.0254C26.1509 7.58488 25.3625 7.58488 24.922 8.0254L14.4649 18.4819C14.0012 18.9456 14.0012 19.6876 14.4649 20.1513C14.9286 20.615 15.6706 20.615 16.1343 20.1513L25.7567 10.5062L35.1704 19.9194L9.1552 27.1069L10.4536 25.8085C10.6855 25.5998 10.8246 25.2984 10.8246 24.9738ZM9.96672 29.3326L36.2602 22.0757L19.4964 38.8386L9.96672 29.3326Z" fill="white"/>
<path d="M38.1383 26.9678C37.9296 27.1764 37.7905 27.501 37.7905 27.8024C37.7905 28.1038 37.9065 28.4052 38.1383 28.6371C38.347 28.8458 38.6484 28.9849 38.973 28.9849C39.2745 28.9849 39.5759 28.8689 39.8077 28.6371C40.0164 28.4284 40.1555 28.1038 40.1555 27.8024C40.1555 27.501 40.0396 27.1996 39.8077 26.9678C39.3672 26.5504 38.5789 26.5504 38.1383 26.9678Z" fill="white"/>
<path d="M13.3053 22.9799C13.514 22.7712 13.6531 22.4698 13.6531 22.1452C13.6531 21.8438 13.5372 21.5424 13.3053 21.3105C12.8648 20.87 12.0764 20.87 11.6359 21.3105C11.4272 21.5424 11.2881 21.8438 11.2881 22.1452C11.2881 22.4466 11.404 22.748 11.6359 22.9799C11.8446 23.1885 12.1692 23.3276 12.4706 23.3276C12.772 23.3276 13.0734 23.2117 13.3053 22.9799Z" fill="white"/>
</svg>
