<svg width="54" height="38" viewBox="0 0 54 38" fill="none" xmlns="http://www.w3.org/2000/svg">
<path d="M48.065 0.825439C44.9419 0.825439 42.3928 3.36461 42.3928 6.47567C42.3928 9.10635 44.1841 11.3481 46.7331 11.9429V12.9265H36.7896C36.0547 12.9265 35.4577 13.5213 35.4577 14.2533V16.3807H28.5684V11.9429C31.0945 11.3481 32.9086 9.08347 32.9086 6.47567C32.9086 3.36461 30.3596 0.825439 27.2365 0.825439C24.1134 0.825439 21.5873 3.36461 21.5873 6.47567C21.5873 9.10635 23.3785 11.3481 25.9275 11.9429V16.3807H19.0383V14.2304C19.0383 13.4984 18.4412 12.9037 17.7063 12.9037H7.76285V11.9429C10.2889 11.3481 12.1031 9.08347 12.1031 6.47567C12.1031 3.36461 9.55406 0.825439 6.45389 0.825439C3.35373 0.825439 0.781738 3.36461 0.781738 6.47567C0.781738 9.08347 2.57294 11.3481 5.12197 11.9429V14.2304C5.12197 14.9625 5.71904 15.5572 6.45389 15.5572H16.3974V16.3807H12.5164C11.7816 16.3807 11.1845 16.9755 11.1845 17.7075V22.9002C11.1845 23.3806 11.4371 23.8153 11.8505 24.044L23.3096 30.5406V35.8477C23.3096 36.3281 23.5852 36.7856 24.0215 37.0144C24.2052 37.1059 24.4349 37.1745 24.6415 37.1745C24.8941 37.1745 25.1467 37.1059 25.3764 36.9458L30.5893 33.4916C30.9567 33.2399 31.1863 32.8282 31.1863 32.3935V30.5406L42.6455 24.044C43.0588 23.8153 43.3114 23.3806 43.3114 22.9002V17.6846C43.3114 16.9526 42.7143 16.3579 41.9795 16.3579H38.0985V15.5572H48.042C48.7769 15.5572 49.374 14.9625 49.374 14.2304V11.9429C51.9 11.3481 53.7142 9.08347 53.7142 6.47567C53.7142 3.36461 51.1881 0.825439 48.065 0.825439ZM51.0733 6.47567C51.0733 8.1227 49.7184 9.47235 48.065 9.47235C46.4116 9.47235 45.0567 8.1227 45.0567 6.47567C45.0567 4.82864 46.4116 3.47899 48.065 3.47899C49.7184 3.47899 51.0733 4.80577 51.0733 6.47567ZM25.3075 28.5962L13.8484 22.0996V19.0114H40.6705V22.0996L29.2114 28.5962C28.798 28.825 28.5454 29.2596 28.5454 29.74V31.6615L25.9964 33.3543V29.74C25.9735 29.2596 25.7208 28.825 25.3075 28.5962ZM6.45389 3.47899C8.10731 3.47899 9.4622 4.82864 9.4622 6.47567C9.4622 8.1227 8.10731 9.47235 6.45389 9.47235C4.80047 9.47235 3.44558 8.1227 3.44558 6.47567C3.44558 4.82864 4.77751 3.47899 6.45389 3.47899ZM24.2511 6.47567C24.2511 4.82864 25.606 3.47899 27.2594 3.47899C28.9129 3.47899 30.2678 4.82864 30.2678 6.47567C30.2678 8.1227 28.9129 9.47235 27.2594 9.47235C25.5831 9.47235 24.2511 8.1227 24.2511 6.47567Z" fill="white"/>
</svg>
