<svg width="60" height="60" viewBox="0 0 60 60" fill="none" xmlns="http://www.w3.org/2000/svg">
<path d="M48.0589 17.5044L39.2829 8.90087C39.0673 8.66368 38.7438 8.5343 38.4204 8.5343H16.2539C13.6664 8.5343 11.5532 10.6474 11.5532 13.235V46.765C11.5532 49.3525 13.6664 51.4657 16.2539 51.4657H43.7464C46.3339 51.4657 48.447 49.3525 48.447 46.765V18.41C48.447 18.065 48.2961 17.7416 48.0589 17.5044ZM39.671 12.7822L44.1129 17.1378H40.0807C39.8651 17.1378 39.671 16.9653 39.671 16.7281V12.7822ZM45.9242 46.765C45.9242 47.9725 44.9539 48.9428 43.7464 48.9428H16.2539C15.0464 48.9428 14.0761 47.9725 14.0761 46.765V13.235C14.0761 12.0275 15.0464 11.0571 16.2539 11.0571H37.1697V16.7497C37.1697 18.3669 38.4851 19.6607 40.0807 19.6607H45.9242V46.765Z" fill="white"/>
<path d="M38.7225 28.4798H20.998C20.3079 28.4798 19.7473 29.0404 19.7473 29.7304C19.7473 30.4204 20.3079 30.9811 20.998 30.9811H38.7225C39.4125 30.9811 39.9731 30.4204 39.9731 29.7304C39.9731 29.0404 39.4125 28.4798 38.7225 28.4798Z" fill="white"/>
<path d="M20.998 36.0267H35.445C36.135 36.0267 36.6956 35.4661 36.6956 34.7761C36.6956 34.0861 36.135 33.5255 35.445 33.5255H20.998C20.3079 33.5255 19.7473 34.0861 19.7473 34.7761C19.7473 35.4661 20.3079 36.0267 20.998 36.0267Z" fill="white"/>
<path d="M37.1916 38.5496H20.998C20.3079 38.5496 19.7473 39.1103 19.7473 39.8003C19.7473 40.4903 20.3079 41.0509 20.998 41.0509H37.1916C37.8816 41.0509 38.4422 40.4903 38.4422 39.8003C38.4422 39.1103 37.8816 38.5496 37.1916 38.5496Z" fill="white"/>
</svg>
